<?xml version="1.0" standalone="no"?>
<!DOCTYPE svg PUBLIC "-//W3C//DTD SVG 20010904//EN"
 "http://www.w3.org/TR/2001/REC-SVG-20010904/DTD/svg10.dtd">
<svg version="1.0" xmlns="http://www.w3.org/2000/svg"
 width="512.000000pt" height="512.000000pt" viewBox="0 0 512.000000 512.000000"
 preserveAspectRatio="xMidYMid meet">
<metadata>
Created by potrace 1.14, written by Peter Selinger 2001-2017
</metadata>
<g transform="translate(0.000000,512.000000) scale(0.100000,-0.100000)"
fill="#000000" stroke="none">
<path d="M2471 5104 c-48 -18 -110 -75 -138 -126 -15 -27 -18 -67 -23 -233
l-5 -200 -90 -16 c-49 -8 -103 -19 -120 -24 -16 -4 -39 -10 -50 -12 -54 -10
-241 -80 -339 -127 -251 -119 -479 -292 -656 -498 l-58 -66 -133 81 c-74 44
-158 90 -187 102 -205 86 -410 -138 -312 -341 29 -58 61 -85 228 -184 156 -93
148 -82 112 -165 -41 -94 -100 -309 -116 -425 -19 -134 -22 -185 -19 -345 2
-130 8 -214 24 -303 22 -126 73 -309 111 -396 11 -27 19 -50 18 -51 -2 -1 -70
-42 -153 -90 -173 -100 -188 -112 -222 -180 -72 -141 14 -319 171 -353 69 -15
135 2 233 60 49 28 119 69 158 91 l69 40 31 -39 c57 -73 210 -227 290 -291
172 -139 386 -261 585 -333 121 -45 390 -109 423 -102 4 1 7 -84 7 -189 0
-183 1 -192 26 -244 73 -157 277 -192 399 -70 65 65 75 107 75 320 0 138 3
182 13 182 12 1 57 8 107 18 14 3 36 7 49 10 200 38 452 141 653 268 161 102
358 277 480 426 l36 44 141 -82 c164 -96 219 -119 280 -115 59 4 145 48 178
91 36 47 61 126 57 177 -5 53 -47 139 -82 168 -15 13 -93 61 -174 108 l-146
84 33 92 c60 164 95 311 113 474 11 102 7 417 -7 500 -7 41 -14 84 -16 95 -12
77 -68 265 -107 364 -16 40 -27 75 -26 76 2 1 68 41 148 89 163 99 191 122
220 181 94 193 -87 409 -291 349 -26 -8 -112 -54 -192 -103 l-145 -89 -67 74
c-121 134 -213 217 -338 307 -69 50 -86 58 -112 53 -35 -7 -65 -39 -65 -70 0
-30 21 -57 72 -92 133 -91 298 -248 400 -380 202 -263 336 -589 375 -914 16
-127 8 -431 -12 -525 -3 -11 -7 -31 -9 -45 -42 -249 -194 -584 -352 -780 -312
-384 -678 -604 -1159 -696 -117 -22 -408 -27 -534 -9 -227 33 -408 87 -593
180 -90 45 -271 154 -288 175 -3 3 -30 25 -60 50 -138 112 -257 242 -363 397
-32 46 -57 85 -57 87 0 3 -13 27 -29 54 -103 174 -188 438 -218 672 -15 115
-5 502 13 532 3 4 7 26 10 50 4 24 19 86 34 138 203 708 791 1223 1520 1332
134 19 535 14 571 -8 4 -2 24 -6 45 -9 71 -11 228 -56 314 -91 108 -44 136
-46 167 -9 25 29 25 63 0 93 -36 45 -304 129 -537 170 l-45 8 -5 194 c-4 166
-8 201 -24 234 -23 45 -76 100 -120 122 -46 23 -142 27 -195 8z m151 -163 l33
-29 3 -176 3 -176 -100 0 -101 0 0 166 c0 137 3 171 17 194 33 56 95 65 145
21z m-1872 -1169 c69 -41 130 -80 137 -86 9 -8 0 -31 -39 -94 l-50 -83 -41 25
c-214 126 -252 153 -264 190 -11 31 -10 43 2 72 16 40 66 66 105 57 14 -3 81
-40 150 -81z m3826 73 c46 -19 67 -67 53 -119 -8 -28 -22 -44 -65 -71 -30 -19
-56 -35 -58 -35 -2 0 -43 -25 -92 -55 -48 -30 -89 -53 -91 -51 -2 2 -26 39
-53 82 l-49 79 22 17 c32 26 247 152 271 160 12 3 22 6 24 7 1 1 18 -6 38 -14z
m-3696 -2377 c0 -3 -64 -43 -142 -88 -146 -84 -178 -94 -224 -69 -34 18 -53
64 -44 106 5 20 12 39 17 43 10 10 173 110 178 110 2 0 30 16 61 34 l57 35 48
-82 c27 -45 49 -85 49 -89z m3660 52 c77 -46 97 -63 106 -90 14 -42 7 -74 -22
-104 -47 -47 -84 -40 -224 44 -30 18 -75 44 -100 58 -25 13 -49 28 -54 33 -5
4 4 29 20 56 16 26 38 65 49 85 l19 37 56 -31 c30 -17 98 -57 150 -88z m-1880
-1125 c0 -177 -5 -202 -50 -228 -50 -30 -104 -16 -133 33 -14 23 -17 57 -17
194 l0 166 100 0 100 0 0 -165z"/>
<path d="M2550 4312 c-60 -6 -91 -52 -69 -103 32 -78 191 -51 185 31 -4 55
-42 79 -116 72z"/>
<path d="M2457 4084 c-1 -1 -31 -5 -67 -8 -504 -52 -963 -374 -1197 -839 -40
-81 -104 -254 -117 -317 -3 -14 -7 -36 -10 -50 -22 -99 -28 -165 -30 -295 -6
-349 115 -698 335 -970 91 -112 228 -243 272 -258 19 -7 86 16 88 30 0 4 3 21
5 36 4 25 -8 40 -108 137 l-113 110 215 125 c118 69 219 125 223 125 5 0 17
-5 28 -11 40 -21 118 -13 180 19 36 18 59 26 59 19 5 -115 17 -153 64 -196
l26 -24 0 -254 c0 -196 -3 -253 -12 -253 -28 0 -198 51 -277 83 -92 37 -111
37 -141 -1 -39 -49 -18 -91 61 -127 287 -128 608 -162 929 -99 137 27 342 105
445 168 279 172 484 390 614 652 105 213 158 449 155 684 -1 135 -8 191 -35
319 -136 627 -675 1115 -1309 1187 -57 6 -277 13 -283 8z m196 -153 c4 -1 7
-111 7 -246 l0 -245 -100 0 -100 0 0 244 c0 168 3 245 11 248 9 3 159 2 182
-1z m-343 -272 l0 -250 -29 -25 c-41 -34 -63 -89 -66 -161 -1 -35 -4 -66 -6
-68 -3 -2 -32 10 -66 27 -48 24 -74 30 -119 29 -39 0 -67 5 -84 17 -14 9 -37
23 -53 32 -48 26 -311 188 -332 204 -20 14 -19 15 15 51 166 174 395 308 640
375 111 31 100 55 100 -231z m589 235 c114 -23 319 -117 444 -204 92 -65 237
-196 236 -214 0 -15 -418 -262 -438 -258 -87 15 -165 -1 -213 -45 -17 -15 -18
-15 -19 3 -1 10 -2 39 -3 64 -3 53 -35 120 -71 148 l-25 20 0 252 0 253 33 -7
c17 -4 43 -9 56 -12z m-1246 -668 c108 -65 197 -122 197 -126 0 -15 -91 -170
-98 -167 -4 2 -98 59 -210 126 -175 107 -202 126 -196 143 11 37 87 149 98
146 6 -2 100 -56 209 -122z m2082 48 c25 -42 44 -81 43 -86 -4 -10 -297 -193
-380 -238 l-37 -20 -46 82 c-25 45 -44 85 -43 90 3 9 397 248 409 248 4 0 28
-34 54 -76z m-1001 3 c12 -9 18 -30 20 -70 4 -57 3 -57 -24 -57 -41 0 -59 -9
-74 -39 -28 -55 -11 -77 97 -130 297 -144 365 -518 136 -749 -116 -116 -294
-164 -449 -122 -203 55 -352 256 -345 465 7 179 103 323 272 407 97 48 118 72
101 119 -12 34 -35 49 -76 49 -29 0 -29 0 -27 57 2 41 7 60 21 70 25 18 322
19 348 0z m373 -219 c22 -25 130 -205 151 -252 7 -16 10 -37 7 -48 -5 -15 -80
-68 -98 -68 -3 0 -9 15 -12 33 -14 63 -73 174 -128 239 l-55 66 46 26 c58 31
63 32 89 4z m-1010 -21 l43 -22 -38 -43 c-56 -63 -101 -141 -129 -227 l-25
-76 -41 25 c-70 41 -73 52 -31 132 62 120 107 198 122 217 20 23 48 21 99 -6z
m-605 -124 c136 -82 207 -131 204 -139 -3 -7 1 -36 8 -64 15 -59 60 -111 121
-142 36 -19 38 -22 21 -32 -83 -50 -136 -113 -136 -164 0 -13 -56 -51 -207
-139 -115 -67 -215 -125 -224 -128 -13 -5 -20 2 -27 27 -15 46 -33 118 -38
148 -3 14 -9 48 -15 77 -12 63 -16 251 -6 354 10 107 67 329 85 329 2 0 99
-57 214 -127z m2390 24 c15 -53 29 -111 32 -129 3 -18 8 -51 11 -72 14 -87 11
-282 -7 -389 -18 -108 -55 -247 -66 -247 -3 0 -66 35 -139 78 -74 42 -153 88
-176 101 -96 55 -117 72 -117 91 0 59 -56 137 -125 172 -36 19 -38 22 -21 32
87 51 132 106 143 179 3 17 7 34 9 36 15 16 411 250 419 247 6 -1 22 -46 37
-99z m-659 -527 c55 -35 59 -54 21 -119 -14 -25 -41 -74 -61 -110 -46 -86 -80
-131 -99 -131 -8 0 -37 11 -64 25 l-49 25 32 32 c65 65 125 170 149 261 6 26
15 47 18 47 3 0 27 -13 53 -30z m-1247 -42 c29 -91 81 -174 150 -243 l33 -34
-47 -29 c-71 -44 -82 -36 -179 124 -71 119 -80 140 -72 163 8 22 68 69 91 71
3 0 14 -24 24 -52z m-170 -260 c33 -56 41 -75 31 -84 -7 -6 -88 -55 -182 -109
-93 -54 -184 -106 -201 -116 l-30 -18 -47 77 c-26 43 -47 83 -47 89 0 17 413
254 424 243 5 -5 28 -42 52 -82z m1787 -35 c108 -63 197 -120 197 -125 0 -10
-41 -83 -75 -134 l-22 -32 -207 122 c-114 66 -207 125 -208 129 0 5 19 44 43
88 32 56 48 77 59 73 8 -3 104 -57 213 -121z m-1127 -122 c64 -9 182 -5 231 8
65 19 69 16 67 -36 -2 -62 -2 -59 -18 -76 -11 -11 -52 -15 -179 -16 -190 -2
-192 -2 -196 89 -2 48 -1 50 21 45 13 -3 46 -9 74 -14z m587 -47 c25 -4 58 -2
74 4 35 12 35 12 268 -125 94 -55 179 -105 190 -111 19 -11 13 -18 -72 -101
-174 -168 -384 -286 -619 -345 -34 -9 -67 -16 -73 -16 -8 0 -11 73 -11 246 l0
246 34 32 c47 44 67 89 71 160 2 33 3 62 4 63 1 1 21 -9 44 -23 24 -13 64 -27
90 -30z m-393 -468 c0 -224 -1 -244 -17 -248 -15 -3 -132 -3 -170 1 -10 1 -13
57 -13 246 l0 245 100 0 100 0 0 -244z"/>
<path d="M2495 2868 c-134 -28 -239 -146 -248 -281 -23 -304 345 -461 549
-234 55 61 83 144 77 228 -12 189 -193 327 -378 287z m141 -161 c56 -29 85
-78 87 -147 4 -128 -144 -209 -252 -137 -50 34 -75 79 -74 138 2 125 129 203
239 146z"/>
<path d="M1106 3502 c-25 -5 -39 -20 -60 -59 -29 -57 -17 -104 31 -121 36 -12
65 -1 90 35 30 41 36 71 23 103 -12 30 -51 49 -84 42z"/>
<path d="M3975 3500 c-37 -14 -58 -47 -51 -81 8 -39 42 -88 70 -98 27 -10 74
6 86 29 36 67 -39 174 -105 150z"/>
<path d="M1022 1827 c-28 -29 -28 -59 0 -108 27 -49 68 -65 109 -44 50 26 51
87 3 144 -33 39 -80 42 -112 8z"/>
<path d="M3986 1819 c-48 -57 -45 -122 5 -146 81 -39 173 109 101 163 -31 24
-78 17 -106 -17z"/>
<path d="M2514 948 c-22 -10 -44 -47 -44 -73 0 -8 10 -26 23 -40 18 -22 31
-26 75 -27 59 0 86 16 96 58 8 30 -18 84 -42 85 -9 1 -33 2 -52 4 -19 1 -45
-2 -56 -7z"/>
</g>
</svg>
